<?xml version="1.0" encoding="utf-8"?>
<!-- Generator: Adobe Illustrator 24.2.1, SVG Export Plug-In . SVG Version: 6.00 Build 0)  -->
<svg version="1.1" id="Layer_1" xmlns="http://www.w3.org/2000/svg" xmlns:xlink="http://www.w3.org/1999/xlink" x="0px" y="0px"
	 viewBox="0 0 402 404" style="enable-background:new 0 0 402 404;" xml:space="preserve">
<style type="text/css">
	.st0{fill:#5C57FF;}
</style>
<g id="Layer_1">
	<g>
		<g>
			<path class="st0" d="M125.3,36.38l244.32,88.93L280.7,369.62L36.38,280.7L125.3,36.38 M119.35,13.56c-4.09,0-7.95,2.53-9.42,6.58
				L14.16,283.25c-1.88,5.17,0.81,10.94,5.98,12.82l263.11,95.77c1.12,0.41,2.27,0.6,3.4,0.6c4.09,0,7.95-2.53,9.42-6.58
				l95.77-263.11c1.88-5.17-0.81-10.94-5.98-12.82L122.75,14.16C121.63,13.76,120.48,13.56,119.35,13.56L119.35,13.56z"/>
		</g>
		<g>
			<path class="st0" d="M265.88,26.24l109.88,235.64L140.12,371.76L30.24,136.12L265.88,26.24 M270.69,2.96
				c-1.41,0-2.84,0.3-4.2,0.93L12.72,122.22c-4.98,2.32-7.16,8.3-4.84,13.29l118.33,253.77c1.69,3.63,5.32,5.77,9.09,5.77
				c1.41,0,2.84-0.3,4.2-0.93l253.77-118.33c4.98-2.32,7.16-8.3,4.84-13.29L279.78,8.72C278.09,5.1,274.46,2.96,270.69,2.96
				L270.69,2.96z"/>
		</g>
	</g>
</g>
</svg>
