<?xml version="1.0" encoding="utf-8"?>
<!-- Generator: Adobe Illustrator 24.2.1, SVG Export Plug-In . SVG Version: 6.00 Build 0)  -->
<svg version="1.1" id="Layer_1" xmlns="http://www.w3.org/2000/svg" xmlns:xlink="http://www.w3.org/1999/xlink" x="0px" y="0px"
	 viewBox="0 0 960 560" style="enable-background:new 0 0 960 560;" xml:space="preserve">
<style type="text/css">
	.st0{fill:#5C57FF;}
	.st1{fill:#5C6FFF;}
</style>
<g id="Layer_1">
	<g>
		<g>
			<path class="st0" d="M382.35,85.56c0.57,0,1.14,0.1,1.68,0.3l263.11,95.77c2.59,0.94,3.93,3.82,2.99,6.41l-95.77,263.11
				c-0.72,1.97-2.61,3.29-4.72,3.29c-0.57,0-1.14-0.1-1.69-0.3l-263.11-95.77c-2.59-0.94-3.93-3.82-2.99-6.41l95.77-263.11
				C378.34,86.88,380.24,85.56,382.35,85.56 M382.35,80.56c-4.09,0-7.95,2.53-9.42,6.58l-95.77,263.11
				c-1.88,5.17,0.81,10.94,5.98,12.82l263.11,95.77c1.12,0.41,2.27,0.6,3.4,0.6c4.09,0,7.95-2.53,9.42-6.58l95.77-263.11
				c1.88-5.17-0.81-10.94-5.98-12.82L385.75,81.16C384.63,80.76,383.48,80.56,382.35,80.56L382.35,80.56z"/>
		</g>
		<g>
			<path class="st1" d="M533.69,74.96L533.69,74.96c1.95,0,3.74,1.13,4.56,2.88L656.58,331.6c1.17,2.5,0.08,5.48-2.42,6.64
				L400.4,456.58c-0.66,0.31-1.36,0.46-2.08,0.46c-1.95,0-3.74-1.13-4.56-2.88L275.42,200.4c-0.56-1.2-0.62-2.56-0.16-3.82
				c0.46-1.26,1.37-2.27,2.57-2.83L531.6,75.42C532.26,75.11,532.96,74.96,533.69,74.96 M533.69,69.96c-1.41,0-2.84,0.3-4.2,0.93
				L275.72,189.22c-4.98,2.32-7.16,8.3-4.84,13.29l118.33,253.77c1.69,3.63,5.32,5.77,9.09,5.77c1.41,0,2.84-0.3,4.2-0.93
				l253.77-118.33c4.98-2.32,7.16-8.3,4.84-13.29L542.78,75.72C541.09,72.1,537.46,69.96,533.69,69.96L533.69,69.96z"/>
		</g>
	</g>
</g>
</svg>
