<svg id="Layer_1" data-name="Layer 1" xmlns="http://www.w3.org/2000/svg" viewBox="0 0 453.75 453.75"><defs><style>.cls-1{fill:#5c57ff;}</style></defs><path class="cls-1" d="M132.32,15.62h0a7.9,7.9,0,0,1,2.71.48L441.74,127.73A8,8,0,0,1,446.52,138L334.89,444.7a8,8,0,0,1-7.54,5.26,7.91,7.91,0,0,1-2.72-.48L17.92,337.85a8,8,0,0,1-4.78-10.26L124.77,20.88a8,8,0,0,1,7.55-5.26m0-2a10,10,0,0,0-9.43,6.57L11.26,326.91a10,10,0,0,0,6,12.81L324,451.36a9.87,9.87,0,0,0,3.4.6,10.05,10.05,0,0,0,9.42-6.58L448.4,138.67a10,10,0,0,0-6-12.82L135.71,14.22a9.82,9.82,0,0,0-3.39-.6Z" transform="translate(-2.96 -1.29)"/><path class="cls-1" d="M308.74,3.29h0A8.07,8.07,0,0,1,316,7.91L454,303.73a8,8,0,0,1-3.87,10.63L154.27,452.3a7.91,7.91,0,0,1-3.35.74,8.06,8.06,0,0,1-7.28-4.61L5.7,152.61A8,8,0,0,1,9.57,142L305.39,4a7.77,7.77,0,0,1,3.35-.75m0-2a9.83,9.83,0,0,0-4.2.94L8.72,140.17a10,10,0,0,0-4.83,13.29L141.83,449.28a10,10,0,0,0,9.09,5.76,9.82,9.82,0,0,0,4.2-.93L450.94,316.17a10,10,0,0,0,4.83-13.29L317.83,7.06a10,10,0,0,0-9.09-5.77Z" transform="translate(-2.96 -1.29)"/><path class="cls-1" d="M168,309c-5.5,0-10-3.1-10-6.88s2.83-10.37,6.29-14.65L213,227.31c3.46-4.27,6.29-4.85,6.29-1.27s-2.62,2.84-5.81-1.64l-47.13-66c-3.19-4.48-5.81-10.11-5.81-12.52s4.11-4.37,9.13-4.37,11.74,3.66,14.93,8.14l44.63,62.47a14.12,14.12,0,0,1-.4,16l-49.33,62.32c-3.42,4.31-7.67,5.76-9.46,3.21s1.25-4.62,6.75-4.62h83c5.5,0,6.91,2.81,3.13,6.25s-5.95,1.85-4.81-3.54l5.36-25.43c1.14-5.38,5.45-9.78,9.57-9.78s7.33,4.49,7.12,10l-1.24,32.52a10.5,10.5,0,0,1-10.38,10Zm85.84-157.72c-1.15-5.38,1-7,4.79-3.53S261,154,255.5,154H179c-5.5,0-10-2.81-10-6.25s4.5-6.25,10-6.25h85.25a10.59,10.59,0,0,1,10.45,10l1.1,24.52c.25,5.49-2.92,10-7.05,10s-8.44-4.4-9.59-9.78Z" transform="translate(-2.96 -1.29)"/><path class="cls-1" d="M202.1,100.59c-6.5,0-10.3,4.2-10.3,9.8a11,11,0,0,0,11.4,11.2c7.8,0,11.4-4.44,11.4-4.44,3.46-4.27,6.64-7,7.05-6s-2.21,5.14-5.82,9.28c0,0-6.43,7.37-13.53,7.37-8.8,0-15.5-7-15.5-16.9,0-10.2,6.8-17.9,16.8-17.9,9.4,0,15.7,6.7,21.1,13.5,5.5,7.1,10.9,13.7,17.3,13.7s10.3-4.2,10.3-9.8a11,11,0,0,0-11.4-11.2c-7.8,0-11.4,4.43-11.4,4.43-3.46,4.27-6.64,7-7.05,6s2.21-5.14,5.82-9.29c0,0,6.43-7.36,13.53-7.36,8.8,0,15.5,7,15.5,16.9,0,10.2-6.8,17.9-16.8,17.9-9.4,0-15.7-6.7-21.1-13.5C213.9,107.19,208.5,100.59,202.1,100.59Z" transform="translate(-2.96 -1.29)"/><path class="cls-1" d="M208.14,328.17c-6.5,0-10.3,4.2-10.3,9.8a11,11,0,0,0,11.4,11.2c7.8,0,11.4-4.43,11.4-4.43,3.47-4.27,6.64-7,7.05-6s-2.2,5.14-5.82,9.29c0,0-6.43,7.36-13.53,7.36-8.8,0-15.5-7-15.5-16.9,0-10.2,6.8-17.9,16.8-17.9,9.4,0,15.7,6.7,21.1,13.5,5.51,7.1,10.91,13.7,17.31,13.7s10.3-4.2,10.3-9.8a11,11,0,0,0-11.4-11.2c-7.8,0-11.4,4.44-11.4,4.44-3.47,4.27-6.64,7-7.06,6s2.21-5.14,5.83-9.28c0,0,6.43-7.37,13.53-7.37,8.8,0,15.5,7,15.5,16.9,0,10.2-6.8,17.9-16.8,17.9-9.4,0-15.71-6.7-21.11-13.5C219.94,334.77,214.54,328.17,208.14,328.17Z" transform="translate(-2.96 -1.29)"/></svg>